ffmpeg version 3.4.8-0ubuntu0.2 Copyright (c) 2000-2020 the FFmpeg developers
  built with gcc 7 (Ubuntu 7.5.0-3ubuntu1~18.04)
  configuration: --prefix=/usr --extra-version=0ubuntu0.2 --toolchain=hardened --libdir=/usr/lib/x86_64-linux-gnu --incdir=/usr/include/x86_64-linux-gnu --enable-gpl --disable-stripping --enable-avresample --enable-avisynth --enable-gnutls --enable-ladspa --enable-libass --enable-libbluray --enable-libbs2b --enable-libcaca --enable-libcdio --enable-libflite --enable-libfontconfig --enable-libfreetype --enable-libfribidi --enable-libgme --enable-libgsm --enable-libmp3lame --enable-libmysofa --enable-libopenjpeg --enable-libopenmpt --enable-libopus --enable-libpulse --enable-librubberband --enable-librsvg --enable-libshine --enable-libsnappy --enable-libsoxr --enable-libspeex --enable-libssh --enable-libtheora --enable-libtwolame --enable-libvorbis --enable-libvpx --enable-libwavpack --enable-libwebp --enable-libx265 --enable-libxml2 --enable-libxvid --enable-libzmq --enable-libzvbi --enable-omx --enable-openal --enable-opengl --enable-sdl2 --enable-libdc1394 --enable-libdrm --enable-libiec61883 --enable-chromaprint --enable-frei0r --enable-libopencv --enable-libx264 --enable-shared
  libavutil      55. 78.100 / 55. 78.100
  libavcodec     57.107.100 / 57.107.100
  libavformat    57. 83.100 / 57. 83.100
  libavdevice    57. 10.100 / 57. 10.100
  libavfilter     6.107.100 /  6.107.100
  libavresample   3.  7.  0 /  3.  7.  0
  libswscale      4.  8.100 /  4.  8.100
  libswresample   2.  9.100 /  2.  9.100
  libpostproc    54.  7.100 / 54.  7.100
[rawvideo @ 0x55ed7ae51a20] Estimating duration from bitrate, this may be inaccurate
Input #0, rawvideo, from '../../SVC-Encoder-20220109T061506Z-001/SVC-Encoder/Dataset/RollerCoaster/ERP_8x8/tile_yuv/Tile_44_480x240.yuv':
  Duration: 00:00:10.00, start: 0.000000, bitrate: 41472 kb/s
    Stream #0:0: Video: rawvideo (I420 / 0x30323449), yuv420p, 480x240, 41472 kb/s, 30 tbr, 30 tbn, 30 tbc
Stream mapping:
  Stream #0:0 -> #0:0 (rawvideo (native) -> h264 (libx264))
Press [q] to stop, [?] for help
[libx264 @ 0x55ed7ae5ec60] using cpu capabilities: MMX2 SSE2Fast LZCNT SSSE3 SSE4.2 AVX
[libx264 @ 0x55ed7ae5ec60] profile High, level 2.1
Output #0, rawvideo, to 'RollerCoaster_Tile_44_480x240_x264_QP_32.h264':
  Metadata:
    encoder         : Lavf57.83.100
    Stream #0:0: Video: h264 (libx264), yuv420p, 480x240, q=-1--1, 30 fps, 30 tbn, 30 tbc
    Metadata:
      encoder         : Lavc57.107.100 libx264
    Side data:
      cpb: bitrate max/min/avg: 0/0/0 buffer size: 0 vbv_delay: -1
frame=  132 fps=0.0 q=38.0 PSNR=Y:nan U:nan V:nan *:nan size=      80kB time=00:00:02.96 bitrate= 220.8kbits/s speed=5.91x    frame=  250 fps=249 q=38.0 PSNR=Y:nan U:nan V:nan *:nan size=     180kB time=00:00:06.90 bitrate= 213.5kbits/s speed=6.87x    frame=  300 fps=220 q=38.0 LPSNR=Y:inf U:inf V:inf *:inf size=     261kB time=00:00:09.93 bitrate= 215.5kbits/s speed=7.27x    
video:261kB audio:0kB subtitle:0kB other streams:0kB global headers:0kB muxing overhead: 0.000000%
[libx264 @ 0x55ed7ae5ec60] frame I:2     Avg QP:31.77  size:  7054  PSNR Mean Y:36.70 U:40.53 V:43.56 Avg:37.83 Global:37.83
[libx264 @ 0x55ed7ae5ec60] frame P:79    Avg QP:33.46  size:  1822  PSNR Mean Y:35.07 U:40.62 V:43.75 Avg:36.41 Global:36.38
[libx264 @ 0x55ed7ae5ec60] frame B:219   Avg QP:37.48  size:   500  PSNR Mean Y:34.75 U:40.87 V:43.88 Avg:36.13 Global:36.12
[libx264 @ 0x55ed7ae5ec60] consecutive B-frames:  1.0%  2.7%  7.0% 89.3%
[libx264 @ 0x55ed7ae5ec60] mb I  I16..4:  7.6% 63.0% 29.4%
[libx264 @ 0x55ed7ae5ec60] mb P  I16..4:  1.9%  5.5%  0.7%  P16..4: 49.0% 19.3%  3.4%  0.0%  0.0%    skip:20.2%
[libx264 @ 0x55ed7ae5ec60] mb B  I16..4:  0.1%  0.2%  0.0%  B16..8: 40.5%  6.8%  0.4%  direct: 0.4%  skip:51.7%  L0:40.9% L1:54.7% BI: 4.4%
[libx264 @ 0x55ed7ae5ec60] 8x8 transform intra:66.6% inter:80.2%
[libx264 @ 0x55ed7ae5ec60] coded y,uvDC,uvAC intra: 53.3% 66.8% 19.6% inter: 7.8% 8.2% 0.0%
[libx264 @ 0x55ed7ae5ec60] i16 v,h,dc,p: 16% 28% 23% 33%
[libx264 @ 0x55ed7ae5ec60] i8 v,h,dc,ddl,ddr,vr,hd,vl,hu:  5% 25% 20%  3%  7%  6% 14%  2% 18%
[libx264 @ 0x55ed7ae5ec60] i4 v,h,dc,ddl,ddr,vr,hd,vl,hu:  8% 22% 19%  2% 15% 10% 11%  2% 10%
[libx264 @ 0x55ed7ae5ec60] i8c dc,h,v,p: 49% 33%  6% 12%
[libx264 @ 0x55ed7ae5ec60] Weighted P-Frames: Y:1.3% UV:0.0%
[libx264 @ 0x55ed7ae5ec60] ref P L0: 60.1% 14.3% 16.9%  8.6%  0.1%
[libx264 @ 0x55ed7ae5ec60] ref B L0: 89.8%  8.6%  1.6%
[libx264 @ 0x55ed7ae5ec60] ref B L1: 95.2%  4.8%
[libx264 @ 0x55ed7ae5ec60] PSNR Mean Y:34.851 U:40.801 V:43.842 Avg:36.215 Global:36.197 kb/s:214.09
